<svg width="95" height="82" viewBox="0 0 95 82" fill="none" xmlns="http://www.w3.org/2000/svg">
<path d="M23.6796 41L0.118186 54.6667L23.6796 68.394L47.2637 82V54.697L23.6796 41Z" fill="#2C2C48"/>
<path d="M70.8478 41L94.8123 54.697L71.1803 68.4757L47.2637 82V68.3333V54.697L70.8478 41Z" fill="#2C2C48"/>
<path d="M71.0446 54.7273L47.3382 68.4243L23.6318 54.7273L47.3382 41.0303L71.0446 54.7273Z" fill="#99A5FF"/>
<path d="M70.8957 41.0002L47.3382 54.7275L23.6318 41.0002L47.2638 27.3335L70.8957 41.0002Z" fill="#99A5FF"/>
<path d="M0 27.3335V54.7275L23.5841 68.4246L23.6319 41.0002L0 27.3335Z" fill="#2C2C48"/>
<path d="M94.8127 27.3335L94.8871 54.7275L71.1807 68.4246L70.896 41.0002L94.8127 27.3335Z" fill="#2C2C48"/>
<path d="M47.2639 27.3332L23.6319 40.9998L0 27.3332L23.6319 13.6665L47.2639 27.3332Z" fill="#2C2C48"/>
<path d="M71.0446 13.697L47.2638 27.3333L23.6318 13.6667L47.3382 0L71.0446 13.697Z" fill="#2C2C48"/>
<path d="M94.8123 27.3332L70.8956 40.9999L47.2637 27.3332L70.8277 13.6362L94.8123 27.3332Z" fill="#2C2C48"/>
</svg>
