<svg width="120" height="103" viewBox="0 0 120 103" fill="none" xmlns="http://www.w3.org/2000/svg">
<path d="M29.7444 51.5L0.148953 68.6667L29.7444 85.9096L59.3684 103V68.7048L29.7444 51.5Z" fill="#F0F0F0"/>
<path d="M88.9921 51.5L119.094 68.7048L89.4098 86.0122L59.3682 103V85.8333V68.7048L88.9921 51.5Z" fill="#F0F0F0"/>
<path d="M89.2391 68.7429L59.4616 85.9477L29.6841 68.7429L59.4616 51.5381L89.2391 68.7429Z" fill="#D9D9DE"/>
<path d="M89.0521 51.5002L59.4616 68.7431L29.6841 51.5002L59.3681 34.3335L89.0521 51.5002Z" fill="#D9D9DE"/>
<path d="M0 34.3335V68.7431L29.624 85.9479L29.684 51.5002L0 34.3335Z" fill="#F0F0F0"/>
<path d="M119.094 34.3335L119.187 68.7431L89.4099 85.9479L89.0522 51.5002L119.094 34.3335Z" fill="#F0F0F0"/>
<path d="M59.3681 34.3332L29.684 51.4998L0 34.3332L29.684 17.1665L59.3681 34.3332Z" fill="#F0F0F0"/>
<path d="M89.2391 17.2048L59.3681 34.3333L29.6841 17.1667L59.4616 0L89.2391 17.2048Z" fill="#F0F0F0"/>
<path d="M119.094 34.3332L89.0522 51.4999L59.3682 34.3332L88.9669 17.1284L119.094 34.3332Z" fill="#F0F0F0"/>
</svg>
